<svg xmlns="http://www.w3.org/2000/svg" viewBox="0 0 410 404" fill="none"><path d="M399.641 59.5246L215.643 388.885C211.844 395.418 202.311 395.383 198.565 388.82L10.5817 59.435C6.53973 52.3376 12.2311 43.5428 20.3135 44.7586L205.223 72.7806C206.398 72.9574 207.593 72.9556 208.768 72.7753L389.506 44.8058C397.556 43.5757 403.287 52.2811 399.297 59.3855L399.641 59.5246Z" fill="url(#a)"/><path d="M292.965 1.57404 156.801 28.2552c-2.238.439-4.063 2.074-4.733 4.252l-48.69 156.972c-1.227 3.999 2.491 7.687 6.511 6.498l57.551-16.739c4.109-1.217 7.978 2.613 6.811 6.743l-18.143 64.924c-1.218 4.247 2.853 8.058 7.029 6.72l28.172-9.001c4.191-1.342 8.275 2.491 7.041 6.745l-23.113 79.807c-1.492 5.169 5.474 8.18 8.358 3.625l1.193-1.9L307.313 104.27c2.151-4.169-1.308-9.008-5.955-8.227l-59.677 9.995c-4.218.704-7.454-3.366-5.95-7.371L300.61 13.0663c2.468-3.431-.646-8.036-4.746-7.232l-2.899-4.26006Z" fill="url(#b)"/><defs><linearGradient id="a" x1="6.00017" y1="32.9999" x2="235" y2="344" gradientUnits="userSpaceOnUse"><stop stop-color="#41D1FF"/><stop offset="1" stop-color="#BD34FE"/></linearGradient><linearGradient id="b" x1="194.651" y1="8.81818" x2="236.076" y2="292.989" gradientUnits="userSpaceOnUse"><stop stop-color="#FFEA83"/><stop offset="0.0833333" stop-color="#FFDD35"/><stop offset="1" stop-color="#FFA800"/></linearGradient></defs></svg>
